<mxfile host="app.diagrams.net" modified="2021-01-04T13:21:31.535Z" agent="5.0 (Windows NT 6.1; WOW64) AppleWebKit/537.36 (KHTML, like Gecko) Chrome/87.0.4280.88 Safari/537.36" etag="uPYI5kiXZfeIPtt8IcQL" version="14.1.2" type="github">
  <diagram id="7zbkWKNnDVuo_YYhG6Th" name="第 1 页">
    <mxGraphModel dx="1422" dy="-431" grid="1" gridSize="10" guides="1" tooltips="1" connect="1" arrows="1" fold="1" page="1" pageScale="1" pageWidth="827" pageHeight="1169" math="0" shadow="0">
      <root>
        <mxCell id="0" />
        <mxCell id="1" parent="0" />
        <mxCell id="_NbM3XgNjk7rVD2YRR4O-1" value="https" style="edgeStyle=isometricEdgeStyle;endArrow=none;html=1;dashed=1;exitX=1;exitY=0;exitDx=0;exitDy=0;strokeColor=#77E6CB;" edge="1" parent="1">
          <mxGeometry x="-0.3027" y="32" width="50" height="100" relative="1" as="geometry">
            <mxPoint x="142.53999999999996" y="2092.3899999999994" as="sourcePoint" />
            <mxPoint x="950" y="2170" as="targetPoint" />
            <Array as="points">
              <mxPoint x="497.5" y="2250" />
            </Array>
            <mxPoint x="-1" as="offset" />
          </mxGeometry>
        </mxCell>
        <mxCell id="_NbM3XgNjk7rVD2YRR4O-2" value="" style="edgeStyle=isometricEdgeStyle;endArrow=none;html=1;dashed=1;exitX=1;exitY=0.75;exitDx=0;exitDy=0;strokeColor=#77E6CB;entryX=1;entryY=1;entryDx=0;entryDy=0;" edge="1" parent="1" source="_NbM3XgNjk7rVD2YRR4O-23" target="_NbM3XgNjk7rVD2YRR4O-43">
          <mxGeometry width="50" height="100" relative="1" as="geometry">
            <mxPoint x="378.99999999999955" y="2246.46" as="sourcePoint" />
            <mxPoint x="790" y="2210" as="targetPoint" />
            <Array as="points">
              <mxPoint x="582.5" y="2150" />
            </Array>
          </mxGeometry>
        </mxCell>
        <mxCell id="_NbM3XgNjk7rVD2YRR4O-3" value="" style="edgeLabel;html=1;align=center;verticalAlign=middle;resizable=0;points=[];" vertex="1" connectable="0" parent="_NbM3XgNjk7rVD2YRR4O-2">
          <mxGeometry x="0.1616" y="-6" relative="1" as="geometry">
            <mxPoint x="-175.88" y="-106.94" as="offset" />
          </mxGeometry>
        </mxCell>
        <mxCell id="_NbM3XgNjk7rVD2YRR4O-4" value="" style="verticalLabelPosition=bottom;html=1;verticalAlign=top;strokeWidth=1;align=center;outlineConnect=0;dashed=0;outlineConnect=0;shape=mxgraph.aws3d.application_server;fillColor=#ECECEC;strokeColor=#5E5E5E;aspect=fixed;rounded=1;fontColor=#000000;" vertex="1" parent="1">
          <mxGeometry x="1160.42" y="1850.52" width="123" height="124" as="geometry" />
        </mxCell>
        <mxCell id="_NbM3XgNjk7rVD2YRR4O-5" value="" style="verticalLabelPosition=bottom;html=1;verticalAlign=top;strokeWidth=1;align=center;outlineConnect=0;dashed=0;outlineConnect=0;shape=mxgraph.aws3d.application_server;fillColor=#ECECEC;strokeColor=#5E5E5E;aspect=fixed;rounded=1;fontColor=#000000;" vertex="1" parent="1">
          <mxGeometry x="1246" y="1898.5199999999998" width="123" height="124" as="geometry" />
        </mxCell>
        <mxCell id="_NbM3XgNjk7rVD2YRR4O-6" value="" style="verticalLabelPosition=bottom;html=1;verticalAlign=top;strokeWidth=1;align=center;outlineConnect=0;dashed=0;outlineConnect=0;shape=mxgraph.aws3d.application_server;fillColor=#ECECEC;strokeColor=#5E5E5E;aspect=fixed;rounded=1;fontColor=#000000;" vertex="1" parent="1">
          <mxGeometry x="1341.5" y="1952.52" width="123" height="124" as="geometry" />
        </mxCell>
        <mxCell id="_NbM3XgNjk7rVD2YRR4O-7" value="" style="verticalLabelPosition=bottom;html=1;verticalAlign=top;strokeWidth=1;align=center;outlineConnect=0;dashed=0;outlineConnect=0;shape=mxgraph.aws3d.application_server;fillColor=#ECECEC;strokeColor=#5E5E5E;aspect=fixed;rounded=1;fontColor=#000000;" vertex="1" parent="1">
          <mxGeometry x="1435.5" y="2005.56" width="123" height="124" as="geometry" />
        </mxCell>
        <mxCell id="_NbM3XgNjk7rVD2YRR4O-8" value="" style="edgeStyle=isometricEdgeStyle;endArrow=none;html=1;dashed=1;entryX=1;entryY=0.25;entryDx=0;entryDy=0;strokeColor=#77E6CB;exitX=0.75;exitY=0;exitDx=0;exitDy=0;" edge="1" parent="1" target="_NbM3XgNjk7rVD2YRR4O-26">
          <mxGeometry x="0.2044" y="1" width="50" height="100" relative="1" as="geometry">
            <mxPoint x="1028.92" y="2087.4400000000005" as="sourcePoint" />
            <mxPoint x="594.3000000000002" y="1980" as="targetPoint" />
            <mxPoint x="1" as="offset" />
          </mxGeometry>
        </mxCell>
        <mxCell id="_NbM3XgNjk7rVD2YRR4O-9" value="TCP/UDP" style="edgeStyle=isometricEdgeStyle;endArrow=none;html=1;dashed=1;entryX=1;entryY=0.75;entryDx=0;entryDy=0;strokeColor=#77E6CB;exitX=0.75;exitY=0;exitDx=0;exitDy=0;" edge="1" parent="1" target="_NbM3XgNjk7rVD2YRR4O-30">
          <mxGeometry x="0.4313" y="16" width="50" height="100" relative="1" as="geometry">
            <mxPoint x="1136.7977335218957" y="1999.9179483867883" as="sourcePoint" />
            <mxPoint x="1002.5" y="1920" as="targetPoint" />
            <Array as="points">
              <mxPoint x="932.5" y="1920" />
            </Array>
            <mxPoint as="offset" />
          </mxGeometry>
        </mxCell>
        <mxCell id="_NbM3XgNjk7rVD2YRR4O-10" value="TCP/UDP" style="edgeStyle=isometricEdgeStyle;endArrow=none;html=1;dashed=1;entryX=0.14;entryY=0.947;entryDx=0;entryDy=0;entryPerimeter=0;strokeColor=#77E6CB;exitX=0.75;exitY=0;exitDx=0;exitDy=0;" edge="1" parent="1" source="_NbM3XgNjk7rVD2YRR4O-42">
          <mxGeometry x="0.2044" y="1" width="50" height="100" relative="1" as="geometry">
            <mxPoint x="932.5" y="2050" as="sourcePoint" />
            <mxPoint x="584.3000000000002" y="1969.999999999999" as="targetPoint" />
            <Array as="points">
              <mxPoint x="802.5" y="2010" />
            </Array>
            <mxPoint x="1" as="offset" />
          </mxGeometry>
        </mxCell>
        <mxCell id="_NbM3XgNjk7rVD2YRR4O-11" value="" style="verticalLabelPosition=bottom;html=1;verticalAlign=top;strokeWidth=1;align=center;outlineConnect=0;dashed=0;outlineConnect=0;shape=mxgraph.aws3d.elasticBeanstalk;aspect=fixed;rounded=1;fontColor=#000000;fillColor=#ECECEC;strokeColor=#ECECEC;" vertex="1" parent="1">
          <mxGeometry x="975" y="1952" width="253.51" height="195" as="geometry" />
        </mxCell>
        <mxCell id="_NbM3XgNjk7rVD2YRR4O-12" value="WeMQ" style="edgeStyle=isometricEdgeStyle;endArrow=none;html=1;" edge="1" parent="1" source="_NbM3XgNjk7rVD2YRR4O-27" target="_NbM3XgNjk7rVD2YRR4O-31">
          <mxGeometry width="50" height="100" relative="1" as="geometry">
            <mxPoint x="824.38" y="1788.5" as="sourcePoint" />
            <mxPoint x="874.38" y="1688.5" as="targetPoint" />
          </mxGeometry>
        </mxCell>
        <mxCell id="_NbM3XgNjk7rVD2YRR4O-13" value="WeMQ" style="edgeStyle=isometricEdgeStyle;endArrow=none;html=1;" edge="1" parent="1" source="_NbM3XgNjk7rVD2YRR4O-27" target="_NbM3XgNjk7rVD2YRR4O-33">
          <mxGeometry x="-0.1598" y="3" width="50" height="100" relative="1" as="geometry">
            <mxPoint x="580" y="1730" as="sourcePoint" />
            <mxPoint x="590" y="1640" as="targetPoint" />
            <mxPoint as="offset" />
          </mxGeometry>
        </mxCell>
        <mxCell id="_NbM3XgNjk7rVD2YRR4O-14" value="User" style="verticalLabelPosition=bottom;html=1;verticalAlign=top;strokeWidth=1;align=center;outlineConnect=0;dashed=0;outlineConnect=0;shape=mxgraph.aws3d.end_user;strokeColor=none;fillColor=#777777;aspect=fixed;" vertex="1" parent="1">
          <mxGeometry x="55.5" y="2120" width="49" height="100.46" as="geometry" />
        </mxCell>
        <mxCell id="_NbM3XgNjk7rVD2YRR4O-15" value="" style="verticalLabelPosition=bottom;html=1;verticalAlign=top;strokeWidth=1;align=center;outlineConnect=0;dashed=0;outlineConnect=0;shape=mxgraph.aws3d.mobile_worker;aspect=fixed;strokeColor=none;fillColor=#777777;" vertex="1" parent="1">
          <mxGeometry x="264" y="2136" width="36" height="90" as="geometry" />
        </mxCell>
        <mxCell id="_NbM3XgNjk7rVD2YRR4O-16" value="" style="verticalLabelPosition=bottom;html=1;verticalAlign=top;strokeWidth=1;align=center;outlineConnect=0;dashed=0;outlineConnect=0;shape=mxgraph.aws3d.client;aspect=fixed;strokeColor=none;fillColor=#777777;" vertex="1" parent="1">
          <mxGeometry x="50" y="1970" width="60" height="104" as="geometry" />
        </mxCell>
        <mxCell id="_NbM3XgNjk7rVD2YRR4O-17" value="&lt;font style=&quot;font-size: 14px&quot;&gt;JS SDK&lt;/font&gt;" style="text;html=1;fillColor=#77e6cb4d;align=center;verticalAlign=middle;whiteSpace=wrap;rounded=1;strokeWidth=1;arcSize=50;" vertex="1" parent="1">
          <mxGeometry x="30" y="2080" width="120" height="24" as="geometry" />
        </mxCell>
        <mxCell id="_NbM3XgNjk7rVD2YRR4O-18" value="&lt;font style=&quot;font-size: 14px&quot;&gt;Mobile&amp;nbsp;&lt;/font&gt;&lt;span style=&quot;font-size: 14px&quot;&gt;SDK&lt;/span&gt;" style="text;html=1;fillColor=#77e6cb4d;align=center;verticalAlign=middle;whiteSpace=wrap;rounded=1;strokeWidth=1;arcSize=50;" vertex="1" parent="1">
          <mxGeometry x="224" y="2236.46" width="145" height="24" as="geometry" />
        </mxCell>
        <mxCell id="_NbM3XgNjk7rVD2YRR4O-19" value="" style="verticalLabelPosition=bottom;html=1;verticalAlign=top;strokeWidth=1;align=center;outlineConnect=0;dashed=0;outlineConnect=0;shape=mxgraph.aws3d.elasticLoadBalancing;fillColor=#ECECEC;strokeColor=#5E5E5E;aspect=fixed;rounded=1;" vertex="1" parent="1">
          <mxGeometry x="285.5" y="1930" width="92" height="88.17" as="geometry" />
        </mxCell>
        <mxCell id="_NbM3XgNjk7rVD2YRR4O-20" value="HTTPS" style="edgeStyle=isometricEdgeStyle;endArrow=none;html=1;entryX=0.158;entryY=0.907;entryDx=0;entryDy=0;entryPerimeter=0;" edge="1" parent="1" source="_NbM3XgNjk7rVD2YRR4O-15" target="_NbM3XgNjk7rVD2YRR4O-19">
          <mxGeometry x="-0.658" y="15" width="50" height="100" relative="1" as="geometry">
            <mxPoint x="296.8" y="2139" as="sourcePoint" />
            <mxPoint x="346.8" y="2039" as="targetPoint" />
            <Array as="points">
              <mxPoint x="300" y="2080" />
            </Array>
            <mxPoint as="offset" />
          </mxGeometry>
        </mxCell>
        <mxCell id="_NbM3XgNjk7rVD2YRR4O-21" value="HTTPS" style="edgeStyle=isometricEdgeStyle;endArrow=none;html=1;" edge="1" parent="1" source="_NbM3XgNjk7rVD2YRR4O-16">
          <mxGeometry width="50" height="100" relative="1" as="geometry">
            <mxPoint x="140" y="2090" as="sourcePoint" />
            <mxPoint x="300" y="2009.999999999999" as="targetPoint" />
          </mxGeometry>
        </mxCell>
        <mxCell id="_NbM3XgNjk7rVD2YRR4O-22" value="" style="verticalLabelPosition=bottom;html=1;verticalAlign=top;strokeWidth=1;align=center;outlineConnect=0;dashed=0;outlineConnect=0;shape=mxgraph.aws3d.route53;fillColor=#ECECEC;strokeColor=#5E5E5E;aspect=fixed;rounded=1;" vertex="1" parent="1">
          <mxGeometry x="456.4999999999999" y="1828.01" width="87.17" height="99.99" as="geometry" />
        </mxCell>
        <mxCell id="_NbM3XgNjk7rVD2YRR4O-23" value="&lt;font style=&quot;font-size: 14px&quot;&gt;Nginx module&lt;/font&gt;" style="text;html=1;fillColor=#77e6cb4d;align=center;verticalAlign=middle;whiteSpace=wrap;rounded=1;strokeWidth=1;arcSize=50;" vertex="1" parent="1">
          <mxGeometry x="267" y="2030" width="145" height="24" as="geometry" />
        </mxCell>
        <mxCell id="_NbM3XgNjk7rVD2YRR4O-24" value="&lt;font style=&quot;font-size: 14px&quot;&gt;&lt;b&gt;C/C++ 应用&lt;/b&gt;&lt;/font&gt;" style="text;html=1;align=center;verticalAlign=middle;whiteSpace=wrap;rounded=1;strokeWidth=1;arcSize=50;" vertex="1" parent="1">
          <mxGeometry x="427.58000000000004" y="1798" width="145" height="24" as="geometry" />
        </mxCell>
        <mxCell id="_NbM3XgNjk7rVD2YRR4O-25" value="HTTPS" style="edgeStyle=isometricEdgeStyle;endArrow=none;html=1;" edge="1" parent="1" source="_NbM3XgNjk7rVD2YRR4O-19" target="_NbM3XgNjk7rVD2YRR4O-22">
          <mxGeometry x="-0.2914" y="6" width="50" height="100" relative="1" as="geometry">
            <mxPoint x="530" y="2040" as="sourcePoint" />
            <mxPoint x="580" y="1940" as="targetPoint" />
            <Array as="points" />
            <mxPoint as="offset" />
          </mxGeometry>
        </mxCell>
        <mxCell id="_NbM3XgNjk7rVD2YRR4O-26" value="&lt;font style=&quot;font-size: 14px&quot;&gt;&lt;br&gt;C/C++ SDK&lt;br&gt;&lt;br&gt;&lt;/font&gt;" style="text;html=1;fillColor=#77e6cb4d;align=center;verticalAlign=middle;whiteSpace=wrap;rounded=1;strokeWidth=1;arcSize=50;" vertex="1" parent="1">
          <mxGeometry x="437.5" y="1928" width="145" height="24" as="geometry" />
        </mxCell>
        <mxCell id="_NbM3XgNjk7rVD2YRR4O-27" value="" style="verticalLabelPosition=bottom;html=1;verticalAlign=top;strokeWidth=1;align=center;outlineConnect=0;dashed=0;outlineConnect=0;shape=mxgraph.aws3d.application;fillColor=#ECECEC;strokeColor=#666666;aspect=fixed;rounded=1;" vertex="1" parent="1">
          <mxGeometry x="651" y="1713" width="92" height="102.09" as="geometry" />
        </mxCell>
        <mxCell id="_NbM3XgNjk7rVD2YRR4O-28" value="&lt;font style=&quot;font-size: 14px&quot;&gt;&lt;b&gt;Java 应用&lt;/b&gt;&lt;/font&gt;" style="text;html=1;align=center;verticalAlign=middle;whiteSpace=wrap;rounded=1;strokeWidth=1;arcSize=50;" vertex="1" parent="1">
          <mxGeometry x="629" y="1687" width="145" height="24" as="geometry" />
        </mxCell>
        <mxCell id="_NbM3XgNjk7rVD2YRR4O-29" value="HTTP" style="edgeStyle=isometricEdgeStyle;endArrow=none;html=1;" edge="1" parent="1" source="_NbM3XgNjk7rVD2YRR4O-22" target="_NbM3XgNjk7rVD2YRR4O-27">
          <mxGeometry x="0.181" y="3" width="50" height="100" relative="1" as="geometry">
            <mxPoint x="604.8" y="1890" as="sourcePoint" />
            <mxPoint x="630" y="1800" as="targetPoint" />
            <mxPoint as="offset" />
          </mxGeometry>
        </mxCell>
        <mxCell id="_NbM3XgNjk7rVD2YRR4O-30" value="&lt;font style=&quot;font-size: 14px&quot;&gt;Java Agent&lt;/font&gt;" style="text;html=1;align=center;verticalAlign=middle;whiteSpace=wrap;rounded=1;strokeWidth=1;arcSize=50;fillColor=#77E6CB;" vertex="1" parent="1">
          <mxGeometry x="629" y="1815.09" width="145" height="24" as="geometry" />
        </mxCell>
        <mxCell id="_NbM3XgNjk7rVD2YRR4O-31" value="" style="verticalLabelPosition=bottom;html=1;verticalAlign=top;strokeWidth=1;align=center;outlineConnect=0;dashed=0;outlineConnect=0;shape=mxgraph.aws3d.application;fillColor=#ECECEC;strokeColor=#666666;aspect=fixed;rounded=1;" vertex="1" parent="1">
          <mxGeometry x="870.5799999999999" y="1586.9100000000003" width="92" height="102.09" as="geometry" />
        </mxCell>
        <mxCell id="_NbM3XgNjk7rVD2YRR4O-32" value="&lt;font style=&quot;font-size: 14px&quot;&gt;Java Agent&lt;/font&gt;" style="text;html=1;align=center;verticalAlign=middle;whiteSpace=wrap;rounded=1;strokeWidth=1;arcSize=50;fillColor=#77E6CB;" vertex="1" parent="1">
          <mxGeometry x="850" y="1689" width="145" height="24" as="geometry" />
        </mxCell>
        <mxCell id="_NbM3XgNjk7rVD2YRR4O-33" value="" style="verticalLabelPosition=bottom;html=1;verticalAlign=top;strokeWidth=1;align=center;outlineConnect=0;dashed=0;outlineConnect=0;shape=mxgraph.aws3d.application;fillColor=#ECECEC;strokeColor=#666666;aspect=fixed;rounded=1;" vertex="1" parent="1">
          <mxGeometry x="477.5" y="1575.37" width="92" height="102.09" as="geometry" />
        </mxCell>
        <mxCell id="_NbM3XgNjk7rVD2YRR4O-34" value="&lt;b style=&quot;font-size: 14px&quot;&gt;Java 应用&lt;/b&gt;" style="text;html=1;align=center;verticalAlign=middle;whiteSpace=wrap;rounded=1;strokeWidth=1;arcSize=50;" vertex="1" parent="1">
          <mxGeometry x="451" y="1550" width="145" height="24" as="geometry" />
        </mxCell>
        <mxCell id="_NbM3XgNjk7rVD2YRR4O-35" value="&lt;b style=&quot;font-size: 14px&quot;&gt;Java 应用&lt;/b&gt;" style="text;html=1;align=center;verticalAlign=middle;whiteSpace=wrap;rounded=1;strokeWidth=1;arcSize=50;" vertex="1" parent="1">
          <mxGeometry x="849.5" y="1562.91" width="145" height="24" as="geometry" />
        </mxCell>
        <mxCell id="_NbM3XgNjk7rVD2YRR4O-36" value="&lt;font style=&quot;font-size: 14px&quot;&gt;Java Agent&lt;/font&gt;" style="text;html=1;align=center;verticalAlign=middle;whiteSpace=wrap;rounded=1;strokeWidth=1;arcSize=50;fillColor=#77E6CB;" vertex="1" parent="1">
          <mxGeometry x="450.9999999999999" y="1677.46" width="145" height="24" as="geometry" />
        </mxCell>
        <mxCell id="_NbM3XgNjk7rVD2YRR4O-37" value="&lt;span style=&quot;font-size: 14px&quot;&gt;Opentracing Logs&lt;/span&gt;" style="text;html=1;align=center;verticalAlign=middle;whiteSpace=wrap;rounded=1;strokeWidth=1;arcSize=50;fillColor=#77e6cb4d;" vertex="1" parent="1">
          <mxGeometry x="436" y="1953.9999999999998" width="145" height="24" as="geometry" />
        </mxCell>
        <mxCell id="_NbM3XgNjk7rVD2YRR4O-38" value="" style="edgeStyle=isometricEdgeStyle;endArrow=none;html=1;elbow=vertical;rounded=0;dashed=1;dashPattern=5 10;" edge="1" parent="1">
          <mxGeometry width="50" height="100" relative="1" as="geometry">
            <mxPoint x="222.5" y="2350" as="sourcePoint" />
            <mxPoint x="1312.5" y="1720" as="targetPoint" />
            <Array as="points">
              <mxPoint x="750" y="2040" />
            </Array>
          </mxGeometry>
        </mxCell>
        <mxCell id="_NbM3XgNjk7rVD2YRR4O-39" value="" style="edgeStyle=isometricEdgeStyle;endArrow=none;html=1;dashed=1;exitX=1;exitY=0;exitDx=0;exitDy=0;strokeColor=#77E6CB;" edge="1" parent="1" source="_NbM3XgNjk7rVD2YRR4O-18">
          <mxGeometry width="50" height="100" relative="1" as="geometry">
            <mxPoint x="702.5" y="2190" as="sourcePoint" />
            <mxPoint x="950" y="2170" as="targetPoint" />
            <Array as="points">
              <mxPoint x="582.5" y="2300" />
            </Array>
          </mxGeometry>
        </mxCell>
        <mxCell id="_NbM3XgNjk7rVD2YRR4O-40" value="&lt;font style=&quot;font-size: 18px&quot;&gt;&lt;span&gt;&amp;nbsp;Collector&amp;nbsp;&lt;/span&gt;&lt;/font&gt;&lt;span style=&quot;font-size: 18px&quot;&gt;&lt;span&gt;Cluster&lt;/span&gt;&lt;/span&gt;" style="text;html=1;align=center;verticalAlign=middle;whiteSpace=wrap;rounded=1;strokeWidth=1;arcSize=50;fillColor=#77E6CB;strokeColor=#00CCCC;rotation=-30;fontStyle=0" vertex="1" parent="1">
          <mxGeometry x="1089" y="2119.67" width="169" height="30" as="geometry" />
        </mxCell>
        <mxCell id="_NbM3XgNjk7rVD2YRR4O-41" value="" style="verticalLabelPosition=bottom;html=1;verticalAlign=top;strokeWidth=1;align=center;outlineConnect=0;dashed=0;outlineConnect=0;shape=mxgraph.aws3d.dataServer;strokeColor=#5E5E5E;aspect=fixed;rounded=1;fillColor=#ffffff;fontColor=#000000;" vertex="1" parent="1">
          <mxGeometry x="904.92" y="2032" width="124" height="106.86" as="geometry" />
        </mxCell>
        <mxCell id="_NbM3XgNjk7rVD2YRR4O-42" value="" style="shape=image;html=1;verticalAlign=top;verticalLabelPosition=bottom;labelBackgroundColor=green;imageAspect=0;aspect=fixed;image=https://docs.honeycomb.io/logos/opentracing-sm.png;rounded=1;strokeWidth=1;fillColor=#77e6cb4d;" vertex="1" parent="1">
          <mxGeometry x="944.42" y="2045.44" width="36" height="36" as="geometry" />
        </mxCell>
        <mxCell id="_NbM3XgNjk7rVD2YRR4O-43" value="&lt;font&gt;&lt;font style=&quot;font-size: 12px&quot;&gt;OpenTracing&lt;br&gt;Bridge&lt;/font&gt;&lt;br&gt;&lt;/font&gt;" style="text;html=1;fillColor=#77e6cb4d;align=center;verticalAlign=middle;whiteSpace=wrap;rounded=1;strokeWidth=1;arcSize=50;rotation=30;" vertex="1" parent="1">
          <mxGeometry x="875" y="2117" width="90" height="30" as="geometry" />
        </mxCell>
        <mxCell id="_NbM3XgNjk7rVD2YRR4O-44" value="" style="verticalLabelPosition=bottom;html=1;verticalAlign=top;strokeWidth=1;align=center;outlineConnect=0;dashed=0;outlineConnect=0;shape=mxgraph.aws3d.dataServer;strokeColor=#5E5E5E;aspect=fixed;rounded=1;fillColor=#ffffff;fontColor=#000000;" vertex="1" parent="1">
          <mxGeometry x="977" y="2075.68" width="124" height="106.86" as="geometry" />
        </mxCell>
        <mxCell id="_NbM3XgNjk7rVD2YRR4O-45" value="" style="shape=image;html=1;verticalAlign=top;verticalLabelPosition=bottom;labelBackgroundColor=green;imageAspect=0;aspect=fixed;image=https://opencensus.io/img/logo-sm.svg;rounded=1;strokeWidth=1;fillColor=#77e6cb4d;" vertex="1" parent="1">
          <mxGeometry x="1016.5" y="2089.12" width="36" height="33.55" as="geometry" />
        </mxCell>
        <mxCell id="_NbM3XgNjk7rVD2YRR4O-46" value="&lt;font&gt;&lt;font style=&quot;font-size: 12px&quot;&gt;OpenCensus &lt;br&gt;Bridge&lt;/font&gt;&lt;br&gt;&lt;/font&gt;" style="text;html=1;fillColor=#77e6cb4d;align=center;verticalAlign=middle;whiteSpace=wrap;rounded=1;strokeWidth=1;arcSize=50;rotation=30;" vertex="1" parent="1">
          <mxGeometry x="959.58" y="2164.04" width="90" height="30" as="geometry" />
        </mxCell>
        <mxCell id="_NbM3XgNjk7rVD2YRR4O-47" value="&lt;font&gt;&lt;span&gt;&lt;font style=&quot;font-size: 20px&quot;&gt;Collector&lt;/font&gt;&lt;/span&gt;&lt;br&gt;&lt;/font&gt;" style="text;html=1;align=center;verticalAlign=middle;whiteSpace=wrap;rounded=1;strokeWidth=1;arcSize=50;rotation=30;fillColor=#77E6CB;strokeColor=#00CCCC;fontStyle=0" vertex="1" parent="1">
          <mxGeometry x="1070.4200000000003" y="1996.52" width="90" height="30" as="geometry" />
        </mxCell>
        <mxCell id="_NbM3XgNjk7rVD2YRR4O-48" value="OPS User" style="verticalLabelPosition=bottom;html=1;verticalAlign=top;strokeWidth=1;align=center;outlineConnect=0;dashed=0;outlineConnect=0;shape=mxgraph.aws3d.end_user;strokeColor=none;fillColor=#777777;aspect=fixed;direction=east;flipV=0;flipH=0;" vertex="1" parent="1">
          <mxGeometry x="725" y="2470" width="49" height="100.46" as="geometry" />
        </mxCell>
        <mxCell id="_NbM3XgNjk7rVD2YRR4O-49" value="TCP/UDP" style="edgeStyle=isometricEdgeStyle;endArrow=none;html=1;dashed=1;entryX=1;entryY=0;entryDx=0;entryDy=0;strokeColor=#77E6CB;exitX=0.75;exitY=0;exitDx=0;exitDy=0;" edge="1" parent="1" target="_NbM3XgNjk7rVD2YRR4O-36">
          <mxGeometry x="0.5122" y="-19" width="50" height="100" relative="1" as="geometry">
            <mxPoint x="872.5" y="1879.999999999999" as="sourcePoint" />
            <mxPoint x="793.9999999999973" y="1859.0900000000001" as="targetPoint" />
            <mxPoint x="-1" as="offset" />
            <Array as="points">
              <mxPoint x="1142.5" y="1660" />
            </Array>
          </mxGeometry>
        </mxCell>
        <mxCell id="_NbM3XgNjk7rVD2YRR4O-50" value="TCP/UDP" style="edgeStyle=isometricEdgeStyle;endArrow=none;html=1;dashed=1;entryX=0.14;entryY=0.947;entryDx=0;entryDy=0;entryPerimeter=0;strokeColor=#77E6CB;exitX=0.75;exitY=0;exitDx=0;exitDy=0;" edge="1" parent="1">
          <mxGeometry x="-0.5146" y="10" width="50" height="100" relative="1" as="geometry">
            <mxPoint x="942.5" y="1839.999999999999" as="sourcePoint" />
            <mxPoint x="932.5" y="1709.999999999999" as="targetPoint" />
            <Array as="points">
              <mxPoint x="1002.5" y="1750" />
            </Array>
            <mxPoint as="offset" />
          </mxGeometry>
        </mxCell>
        <mxCell id="_NbM3XgNjk7rVD2YRR4O-51" value="" style="shape=image;html=1;verticalAlign=top;verticalLabelPosition=bottom;labelBackgroundColor=green;imageAspect=0;aspect=fixed;image=https://cloud.githubusercontent.com/assets/2662304/26528633/81c95b24-43b8-11e7-808d-651a09e9ecca.png;rounded=1;strokeWidth=1;fillColor=#77e6cb4d;" vertex="1" parent="1">
          <mxGeometry x="1478.5" y="2012.9499999999996" width="36" height="34" as="geometry" />
        </mxCell>
        <mxCell id="_NbM3XgNjk7rVD2YRR4O-52" value="&lt;font style=&quot;font-size: 18px&quot;&gt;Alarms&lt;/font&gt;" style="text;html=1;align=center;verticalAlign=middle;whiteSpace=wrap;rounded=1;strokeWidth=1;arcSize=50;fillColor=#77E6CB;strokeColor=#00CCCC;rotation=30;fontColor=#000000;" vertex="1" parent="1">
          <mxGeometry x="1514.5" y="1988.1699999999998" width="89.5" height="30" as="geometry" />
        </mxCell>
        <mxCell id="_NbM3XgNjk7rVD2YRR4O-53" value="&lt;font style=&quot;font-size: 18px&quot;&gt;Logs&lt;/font&gt;" style="text;html=1;align=center;verticalAlign=middle;whiteSpace=wrap;rounded=1;strokeWidth=1;arcSize=50;fillColor=#77E6CB;strokeColor=#00CCCC;rotation=30;" vertex="1" parent="1">
          <mxGeometry x="1424" y="1930" width="78.25" height="30" as="geometry" />
        </mxCell>
        <mxCell id="_NbM3XgNjk7rVD2YRR4O-54" value="&lt;font style=&quot;font-size: 18px&quot;&gt;Metrics&lt;/font&gt;" style="text;html=1;align=center;verticalAlign=middle;whiteSpace=wrap;rounded=1;strokeWidth=1;arcSize=50;fillColor=#77E6CB;strokeColor=#00CCCC;rotation=30;fontColor=#000000;" vertex="1" parent="1">
          <mxGeometry x="1329.24" y="1880.23" width="79.19" height="30" as="geometry" />
        </mxCell>
        <mxCell id="_NbM3XgNjk7rVD2YRR4O-55" value="&lt;font style=&quot;font-size: 18px&quot;&gt;Traces&lt;/font&gt;" style="text;html=1;align=center;verticalAlign=middle;whiteSpace=wrap;rounded=1;strokeWidth=1;arcSize=50;fillColor=#77E6CB;strokeColor=#00CCCC;rotation=30;" vertex="1" parent="1">
          <mxGeometry x="1240" y="1828.01" width="76.66" height="30" as="geometry" />
        </mxCell>
        <mxCell id="_NbM3XgNjk7rVD2YRR4O-56" value="" style="endArrow=classic;html=1;strokeColor=#77E6CB;strokeWidth=1;fontColor=#000000;" edge="1" parent="1">
          <mxGeometry width="50" height="50" relative="1" as="geometry">
            <mxPoint x="1482.5" y="2139.999999999999" as="sourcePoint" />
            <mxPoint x="792.5" y="2549.999999999999" as="targetPoint" />
          </mxGeometry>
        </mxCell>
        <mxCell id="_NbM3XgNjk7rVD2YRR4O-57" value="" style="verticalLabelPosition=bottom;html=1;verticalAlign=top;strokeWidth=1;align=center;outlineConnect=0;dashed=0;outlineConnect=0;shape=mxgraph.aws3d.email;aspect=fixed;strokeColor=#292929;rounded=1;fillColor=#77E6CB;gradientColor=#ffffff;fontColor=#000000;" vertex="1" parent="1">
          <mxGeometry x="1435.5" y="2108.14" width="36" height="47.72" as="geometry" />
        </mxCell>
        <mxCell id="_NbM3XgNjk7rVD2YRR4O-58" value="" style="shape=image;html=1;verticalAlign=top;verticalLabelPosition=bottom;labelBackgroundColor=green;imageAspect=0;aspect=fixed;image=https://image.winudf.com/v2/image1/Y29tLnRlbmNlbnQud2V3b3JrX2ljb25fMTU0NjkyMjEyNF8wNDg/icon.png?w=170&amp;fakeurl=1&amp;type=.png;rounded=1;strokeWidth=1;fillColor=#77e6cb4d;" vertex="1" parent="1">
          <mxGeometry x="1410.5" y="2138.86" width="36" height="36" as="geometry" />
        </mxCell>
        <mxCell id="_NbM3XgNjk7rVD2YRR4O-59" value="" style="text;html=1;align=center;verticalAlign=middle;whiteSpace=wrap;rounded=1;strokeWidth=1;arcSize=50;fillColor=#77E6CB;" vertex="1" parent="1">
          <mxGeometry x="1432.25" y="1508.8" width="70" height="24" as="geometry" />
        </mxCell>
        <mxCell id="_NbM3XgNjk7rVD2YRR4O-60" value="&lt;span style=&quot;color: rgb(0 , 0 , 0) ; font-family: &amp;#34;helvetica&amp;#34; ; font-size: 14px ; font-style: normal ; font-weight: 400 ; letter-spacing: normal ; text-align: center ; text-indent: 0px ; text-transform: none ; word-spacing: 0px ; background-color: rgb(248 , 249 , 250) ; display: inline ; float: none&quot;&gt;已实现&lt;/span&gt;" style="text;whiteSpace=wrap;html=1;" vertex="1" parent="1">
          <mxGeometry x="1512.25" y="1505.8" width="140" height="30" as="geometry" />
        </mxCell>
        <mxCell id="_NbM3XgNjk7rVD2YRR4O-61" value="" style="text;html=1;fillColor=#77e6cb4d;align=center;verticalAlign=middle;whiteSpace=wrap;rounded=1;strokeWidth=1;arcSize=50;" vertex="1" parent="1">
          <mxGeometry x="1432.25" y="1548.8" width="70" height="24" as="geometry" />
        </mxCell>
        <mxCell id="_NbM3XgNjk7rVD2YRR4O-62" value="&lt;span style=&quot;color: rgb(0 , 0 , 0) ; font-family: &amp;#34;helvetica&amp;#34; ; font-size: 14px ; font-style: normal ; font-weight: 400 ; letter-spacing: normal ; text-align: center ; text-indent: 0px ; text-transform: none ; word-spacing: 0px ; background-color: rgb(248 , 249 , 250) ; display: inline ; float: none&quot;&gt;规划及实现中&lt;/span&gt;" style="text;whiteSpace=wrap;html=1;" vertex="1" parent="1">
          <mxGeometry x="1512.25" y="1545.8" width="120" height="30" as="geometry" />
        </mxCell>
        <mxCell id="_NbM3XgNjk7rVD2YRR4O-63" value="" style="endArrow=none;html=1;strokeWidth=2;" edge="1" parent="1">
          <mxGeometry width="50" height="50" relative="1" as="geometry">
            <mxPoint x="1439.25" y="1598.8" as="sourcePoint" />
            <mxPoint x="1499.25" y="1598.8899999999999" as="targetPoint" />
          </mxGeometry>
        </mxCell>
        <mxCell id="_NbM3XgNjk7rVD2YRR4O-64" value="&lt;span style=&quot;color: rgb(0 , 0 , 0) ; font-family: &amp;#34;helvetica&amp;#34; ; font-size: 14px ; font-style: normal ; font-weight: 400 ; letter-spacing: normal ; text-align: center ; text-indent: 0px ; text-transform: none ; word-spacing: 0px ; background-color: rgb(248 , 249 , 250) ; display: inline ; float: none&quot;&gt;业务链路&lt;/span&gt;" style="text;whiteSpace=wrap;html=1;" vertex="1" parent="1">
          <mxGeometry x="1510.25" y="1583.8" width="140" height="30" as="geometry" />
        </mxCell>
        <mxCell id="_NbM3XgNjk7rVD2YRR4O-65" value="" style="endArrow=none;html=1;strokeWidth=2;fontColor=#77E6CB;rounded=0;strokeColor=#77E6CB;dashed=1;" edge="1" parent="1">
          <mxGeometry width="50" height="50" relative="1" as="geometry">
            <mxPoint x="1437.75" y="1638.3" as="sourcePoint" />
            <mxPoint x="1497.75" y="1638.3899999999999" as="targetPoint" />
          </mxGeometry>
        </mxCell>
        <mxCell id="_NbM3XgNjk7rVD2YRR4O-66" value="&lt;span style=&quot;color: rgb(0 , 0 , 0) ; font-family: &amp;#34;helvetica&amp;#34; ; font-size: 14px ; font-style: normal ; font-weight: 400 ; letter-spacing: normal ; text-align: center ; text-indent: 0px ; text-transform: none ; word-spacing: 0px ; background-color: rgb(248 , 249 , 250) ; display: inline ; float: none&quot;&gt;监控链路&lt;/span&gt;" style="text;whiteSpace=wrap;html=1;" vertex="1" parent="1">
          <mxGeometry x="1510.25" y="1624.8" width="140" height="30" as="geometry" />
        </mxCell>
        <mxCell id="_NbM3XgNjk7rVD2YRR4O-67" value="" style="endArrow=none;html=1;strokeWidth=2;fontColor=#77E6CB;rounded=0;strokeColor=#77E6CB;" edge="1" parent="1">
          <mxGeometry width="50" height="50" relative="1" as="geometry">
            <mxPoint x="1437.75" y="1678.3" as="sourcePoint" />
            <mxPoint x="1497.75" y="1678.3899999999999" as="targetPoint" />
          </mxGeometry>
        </mxCell>
        <mxCell id="_NbM3XgNjk7rVD2YRR4O-68" value="&lt;span style=&quot;color: rgb(0 , 0 , 0) ; font-family: &amp;#34;helvetica&amp;#34; ; font-size: 14px ; font-style: normal ; font-weight: 400 ; letter-spacing: normal ; text-align: center ; text-indent: 0px ; text-transform: none ; word-spacing: 0px ; background-color: rgb(248 , 249 , 250) ; display: inline ; float: none&quot;&gt;监控内部链路&lt;/span&gt;" style="text;whiteSpace=wrap;html=1;" vertex="1" parent="1">
          <mxGeometry x="1508.25" y="1663.21" width="140" height="30" as="geometry" />
        </mxCell>
        <mxCell id="_NbM3XgNjk7rVD2YRR4O-69" value="" style="shape=image;html=1;verticalAlign=top;verticalLabelPosition=bottom;labelBackgroundColor=green;imageAspect=0;aspect=fixed;image=https://avatars1.githubusercontent.com/u/49998002?s=200&amp;v=4;rounded=1;strokeWidth=1;fillColor=#77e6cb4d;" vertex="1" parent="1">
          <mxGeometry x="1049.58" y="2026.5200000000002" width="36" height="36" as="geometry" />
        </mxCell>
        <mxCell id="_NbM3XgNjk7rVD2YRR4O-70" value="" style="shape=image;html=1;verticalAlign=top;verticalLabelPosition=bottom;labelBackgroundColor=green;imageAspect=0;aspect=fixed;image=https://avatars1.githubusercontent.com/u/49998002?s=200&amp;v=4;rounded=1;strokeWidth=1;fillColor=#77e6cb4d;" vertex="1" parent="1">
          <mxGeometry x="1399.5" y="2363" width="36" height="36" as="geometry" />
        </mxCell>
        <mxCell id="_NbM3XgNjk7rVD2YRR4O-71" value="" style="shape=image;html=1;verticalAlign=top;verticalLabelPosition=bottom;labelBackgroundColor=green;imageAspect=0;aspect=fixed;image=https://docs.honeycomb.io/logos/opentracing-sm.png;rounded=1;strokeWidth=1;fillColor=#77e6cb4d;" vertex="1" parent="1">
          <mxGeometry x="1399.5" y="2415" width="36" height="36" as="geometry" />
        </mxCell>
        <mxCell id="_NbM3XgNjk7rVD2YRR4O-72" value="" style="shape=image;html=1;verticalAlign=top;verticalLabelPosition=bottom;labelBackgroundColor=green;imageAspect=0;aspect=fixed;image=https://opencensus.io/img/logo-sm.svg;rounded=1;strokeWidth=1;fillColor=#77e6cb4d;" vertex="1" parent="1">
          <mxGeometry x="1399.5" y="2476" width="36" height="33.55" as="geometry" />
        </mxCell>
        <mxCell id="_NbM3XgNjk7rVD2YRR4O-73" value="&lt;div style=&quot;text-align: center&quot;&gt;&lt;font face=&quot;helvetica&quot; style=&quot;font-size: 16px&quot; color=&quot;#77e6cb&quot;&gt;&lt;b&gt;遵循OpenTelemetry标准&lt;/b&gt;&lt;/font&gt;&lt;/div&gt;" style="text;whiteSpace=wrap;html=1;" vertex="1" parent="1">
          <mxGeometry x="1450" y="2363" width="184.5" height="30" as="geometry" />
        </mxCell>
        <mxCell id="_NbM3XgNjk7rVD2YRR4O-74" value="&lt;div style=&quot;text-align: center&quot;&gt;&lt;font face=&quot;helvetica&quot; style=&quot;font-size: 16px&quot; color=&quot;#77e6cb&quot;&gt;&lt;b&gt;兼容OpenTracing&lt;/b&gt;&lt;/font&gt;&lt;/div&gt;" style="text;whiteSpace=wrap;html=1;" vertex="1" parent="1">
          <mxGeometry x="1450" y="2418" width="184.5" height="30" as="geometry" />
        </mxCell>
        <mxCell id="_NbM3XgNjk7rVD2YRR4O-75" value="&lt;div style=&quot;text-align: center&quot;&gt;&lt;font face=&quot;helvetica&quot; style=&quot;font-size: 16px&quot; color=&quot;#77e6cb&quot;&gt;&lt;b&gt;兼容OpenCensus&lt;/b&gt;&lt;/font&gt;&lt;/div&gt;" style="text;whiteSpace=wrap;html=1;" vertex="1" parent="1">
          <mxGeometry x="1450" y="2476" width="184.5" height="30" as="geometry" />
        </mxCell>
        <mxCell id="_NbM3XgNjk7rVD2YRR4O-76" value="&lt;span style=&quot;font-size: 14px&quot;&gt;Opentracing Logs&lt;/span&gt;" style="text;html=1;align=center;verticalAlign=middle;whiteSpace=wrap;rounded=1;strokeWidth=1;arcSize=50;fillColor=#77e6cb4d;" vertex="1" parent="1">
          <mxGeometry x="267" y="2057.56" width="145" height="24" as="geometry" />
        </mxCell>
        <mxCell id="_NbM3XgNjk7rVD2YRR4O-77" value="TCP/UDP/&lt;span style=&quot;font-size: 12px ; background-color: rgb(248 , 249 , 250)&quot;&gt;HTTP&lt;/span&gt;" style="edgeStyle=isometricEdgeStyle;endArrow=none;html=1;dashed=1;entryX=0.14;entryY=0.947;entryDx=0;entryDy=0;entryPerimeter=0;strokeColor=#77E6CB;" edge="1" parent="1">
          <mxGeometry x="0.7071" y="-4" width="50" height="100" relative="1" as="geometry">
            <mxPoint x="930" y="2180" as="sourcePoint" />
            <mxPoint x="412" y="2076.059999999999" as="targetPoint" />
            <Array as="points">
              <mxPoint x="620" y="2170" />
            </Array>
            <mxPoint x="1" as="offset" />
          </mxGeometry>
        </mxCell>
        <mxCell id="_NbM3XgNjk7rVD2YRR4O-78" value="&lt;font style=&quot;font-size: 14px&quot;&gt;&lt;b&gt;Nginx&lt;/b&gt;&lt;/font&gt;" style="text;html=1;align=center;verticalAlign=middle;whiteSpace=wrap;rounded=1;strokeWidth=1;arcSize=50;" vertex="1" parent="1">
          <mxGeometry x="272" y="1898.52" width="119" height="24" as="geometry" />
        </mxCell>
        <mxCell id="_NbM3XgNjk7rVD2YRR4O-79" value="&lt;font style=&quot;font-size: 14px&quot;&gt;&lt;br&gt;Java SDK&lt;br&gt;&lt;br&gt;&lt;/font&gt;" style="text;html=1;fillColor=#77e6cb4d;align=center;verticalAlign=middle;whiteSpace=wrap;rounded=1;strokeWidth=1;arcSize=50;" vertex="1" parent="1">
          <mxGeometry x="624.5" y="1841.09" width="145" height="24" as="geometry" />
        </mxCell>
        <mxCell id="_NbM3XgNjk7rVD2YRR4O-80" value="&lt;font style=&quot;font-size: 14px&quot;&gt;&lt;br&gt;Java SDK&lt;br&gt;&lt;br&gt;&lt;/font&gt;" style="text;html=1;fillColor=#77e6cb4d;align=center;verticalAlign=middle;whiteSpace=wrap;rounded=1;strokeWidth=1;arcSize=50;" vertex="1" parent="1">
          <mxGeometry x="850" y="1718" width="145" height="24" as="geometry" />
        </mxCell>
        <mxCell id="_NbM3XgNjk7rVD2YRR4O-81" value="&lt;font style=&quot;font-size: 14px&quot;&gt;&lt;br&gt;Java SDK&lt;br&gt;&lt;br&gt;&lt;/font&gt;" style="text;html=1;fillColor=#77e6cb4d;align=center;verticalAlign=middle;whiteSpace=wrap;rounded=1;strokeWidth=1;arcSize=50;" vertex="1" parent="1">
          <mxGeometry x="451" y="1703.46" width="145" height="24" as="geometry" />
        </mxCell>
      </root>
    </mxGraphModel>
  </diagram>
</mxfile>
